HIERARCHY
ROOT Root
{
  OFFSET 0.0 0.0 0.0
  CHANNELS 6 Xposition Yposition Zposition Zrotation Yrotation Xrotation
  JOINT Hips
  {
    OFFSET 0.0 100.0 0.0
    CHANNELS 6 Xposition Yposition Zposition Zrotation Yrotation Xrotation
    JOINT Spine1
    {
      OFFSET -0.013727 5.003763 -0.053727
      CHANNELS 3 Zrotation Yrotation Xrotation
      JOINT Spine2
      {
        OFFSET -0.0 7.125301 -0.029825
        CHANNELS 3 Zrotation Yrotation Xrotation
        JOINT Chest
        {
          OFFSET -1e-06 7.550063 -0.815971
          CHANNELS 3 Zrotation Yrotation Xrotation
          JOINT Neck1
          {
            OFFSET -0.181677 26.311295 -0.553348
            CHANNELS 3 Zrotation Yrotation Xrotation
            JOINT Neck2
            {
              OFFSET -3e-06 7.709397 2.302585
              CHANNELS 3 Zrotation Yrotation Xrotation
              JOINT Head
              {
                OFFSET -5e-06 6.128916 1.953709
                CHANNELS 3 Zrotation Yrotation Xrotation
                JOINT HeadEnd
                {
                  OFFSET 0.003598 16.065403 -1.835379
                  CHANNELS 3 Zrotation Yrotation Xrotation
                }
                JOINT Jaw
                {
                  OFFSET 0.002637 0.475592 3.094941
                  CHANNELS 3 Zrotation Yrotation Xrotation
                }
                JOINT LeftEye
                {
                  OFFSET 3.206381 5.380205 7.586883
                  CHANNELS 3 Zrotation Yrotation Xrotation
                }
                JOINT RightEye
                {
                  OFFSET -3.22244 5.361869 7.558234
                  CHANNELS 3 Zrotation Yrotation Xrotation
                }
              }
            }
          }
          JOINT LeftShoulder
          {
            OFFSET 1.621652 23.237164 5.113413
            CHANNELS 3 Zrotation Yrotation Xrotation
            JOINT LeftArm
            {
              OFFSET 14.919846 2e-06 -5.502326
              CHANNELS 3 Zrotation Yrotation Xrotation
              JOINT LeftForeArm
              {
                OFFSET 28.739307 0.0 -0.002588
                CHANNELS 3 Zrotation Yrotation Xrotation
                JOINT LeftHand
                {
                  OFFSET 27.093981 -1e-06 0.002609
                  CHANNELS 3 Zrotation Yrotation Xrotation
                  JOINT LeftHandThumb1
                  {
                    OFFSET 2.276482 -1.392045 3.191413
                    CHANNELS 3 Zrotation Yrotation Xrotation
                    JOINT LeftHandThumb2
                    {
                      OFFSET 4.012836 -1.828127 1.641654
                      CHANNELS 3 Zrotation Yrotation Xrotation
                      JOINT LeftHandThumb3
                      {
                        OFFSET 2.798515 0.0 -3e-06
                        CHANNELS 3 Zrotation Yrotation Xrotation
                        JOINT LeftHandThumbEnd
                        {
                          OFFSET 3.180793 -4e-06 4e-06
                          CHANNELS 3 Zrotation Yrotation Xrotation
                        }
                      }
                    }
                  }
                  JOINT LeftHandIndex1
                  {
                    OFFSET 3.247555 -0.531998 2.296169
                    CHANNELS 3 Zrotation Yrotation Xrotation
                    JOINT LeftHandIndex2
                    {
                      OFFSET 6.364578 0.01206 0.1786
                      CHANNELS 3 Zrotation Yrotation Xrotation
                      JOINT LeftHandIndex3
                      {
                        OFFSET 3.662364 0.0 0.0
                        CHANNELS 3 Zrotation Yrotation Xrotation
                        JOINT LeftHandIndex4
                        {
                          OFFSET 2.329242 4e-06 4e-06
                          CHANNELS 3 Zrotation Yrotation Xrotation
                          JOINT LeftHandIndexEnd
                          {
                            OFFSET 2.759615 -0.180537 -0.113024
                            CHANNELS 3 Zrotation Yrotation Xrotation
                          }
                        }
                      }
                    }
                  }
                  JOINT LeftHandMiddle1
                  {
                    OFFSET 3.163495 0.240981 1.000332
                    CHANNELS 3 Zrotation Yrotation Xrotation
                    JOINT LeftHandMiddle2
                    {
                      OFFSET 6.19078 -0.259278 -1.002548
                      CHANNELS 3 Zrotation Yrotation Xrotation
                      JOINT LeftHandMiddle3
                      {
                        OFFSET 4.35652 -4e-06 -1e-06
                        CHANNELS 3 Zrotation Yrotation Xrotation
                        JOINT LeftHandMiddle4
                        {
                          OFFSET 2.996877 -8e-06 0.0
                          CHANNELS 3 Zrotation Yrotation Xrotation
                          JOINT LeftHandMiddleEnd
                          {
                            OFFSET 2.304287 -0.294569 -0.031741
                            CHANNELS 3 Zrotation Yrotation Xrotation
                          }
                        }
                      }
                    }
                  }
                  JOINT LeftHandRing1
                  {
                    OFFSET 2.882643 -0.053652 -0.322543
                    CHANNELS 3 Zrotation Yrotation Xrotation
                    JOINT LeftHandRing2
                    {
                      OFFSET 5.854541 -0.486202 -1.373841
                      CHANNELS 3 Zrotation Yrotation Xrotation
                      JOINT LeftHandRing3
                      {
                        OFFSET 4.350578 0.0 3e-06
                        CHANNELS 3 Zrotation Yrotation Xrotation
                        JOINT LeftHandRing4
                        {
                          OFFSET 2.651321 7e-06 2e-06
                          CHANNELS 3 Zrotation Yrotation Xrotation
                          JOINT LeftHandRingEnd
                          {
                            OFFSET 1.936105 0.077687 -7.1e-05
                            CHANNELS 3 Zrotation Yrotation Xrotation
                          }
                        }
                      }
                    }
                  }
                  JOINT LeftHandPinky1
                  {
                    OFFSET 2.8655 -0.310005 -1.600378
                    CHANNELS 3 Zrotation Yrotation Xrotation
                    JOINT LeftHandPinky2
                    {
                      OFFSET 5.087849 -1.331141 -1.77123
                      CHANNELS 3 Zrotation Yrotation Xrotation
                      JOINT LeftHandPinky3
                      {
                        OFFSET 3.070974 4e-06 0.0
                        CHANNELS 3 Zrotation Yrotation Xrotation
                        JOINT LeftHandPinky4
                        {
                          OFFSET 1.549672 0.0 1e-06
                          CHANNELS 3 Zrotation Yrotation Xrotation
                          JOINT LeftHandPinkyEnd
                          {
                            OFFSET 1.944893 -0.157802 0.057219
                            CHANNELS 3 Zrotation Yrotation Xrotation
                          }
                        }
                      }
                    }
                  }
                }
              }
            }
          }
          JOINT RightShoulder
          {
            OFFSET -1.380118 23.180309 5.214158
            CHANNELS 3 Zrotation Yrotation Xrotation
            JOINT RightArm
            {
              OFFSET -15.037196 1.2e-05 -5.545604
              CHANNELS 3 Zrotation Yrotation Xrotation
              JOINT RightForeArm
              {
                OFFSET -28.736639 2e-06 -0.002597
                CHANNELS 3 Zrotation Yrotation Xrotation
                JOINT RightHand
                {
                  OFFSET -27.133619 -0.0 0.002613
                  CHANNELS 3 Zrotation Yrotation Xrotation
                  JOINT RightHandThumb1
                  {
                    OFFSET -2.274032 -1.383988 3.163127
                    CHANNELS 3 Zrotation Yrotation Xrotation
                    JOINT RightHandThumb2
                    {
                      OFFSET -4.011429 -1.827466 1.640914
                      CHANNELS 3 Zrotation Yrotation Xrotation
                      JOINT RightHandThumb3
                      {
                        OFFSET -2.794935 -4e-06 -3e-06
                        CHANNELS 3 Zrotation Yrotation Xrotation
                        JOINT RightHandThumbEnd
                        {
                          OFFSET -3.183852 4e-06 1e-06
                          CHANNELS 3 Zrotation Yrotation Xrotation
                        }
                      }
                    }
                  }
                  JOINT RightHandIndex1
                  {
                    OFFSET -3.253266 -0.520057 2.282866
                    CHANNELS 3 Zrotation Yrotation Xrotation
                    JOINT RightHandIndex2
                    {
                      OFFSET -6.341917 0.012471 0.178266
                      CHANNELS 3 Zrotation Yrotation Xrotation
                      JOINT RightHandIndex3
                      {
                        OFFSET -3.654871 -8e-06 -0.0
                        CHANNELS 3 Zrotation Yrotation Xrotation
                        JOINT RightHandIndex4
                        {
                          OFFSET -2.327586 0.0 1e-06
                          CHANNELS 3 Zrotation Yrotation Xrotation
                          JOINT RightHandIndexEnd
                          {
                            OFFSET -2.76179 -0.180656 -0.113078
                            CHANNELS 3 Zrotation Yrotation Xrotation
                          }
                        }
                      }
                    }
                  }
                  JOINT RightHandMiddle1
                  {
                    OFFSET -3.168106 0.246593 1.00103
                    CHANNELS 3 Zrotation Yrotation Xrotation
                    JOINT RightHandMiddle2
                    {
                      OFFSET -6.180828 -0.258836 -1.000895
                      CHANNELS 3 Zrotation Yrotation Xrotation
                      JOINT RightHandMiddle3
                      {
                        OFFSET -4.348901 0.0 -0.0
                        CHANNELS 3 Zrotation Yrotation Xrotation
                        JOINT RightHandMiddle4
                        {
                          OFFSET -3.00024 -4e-06 -2e-06
                          CHANNELS 3 Zrotation Yrotation Xrotation
                          JOINT RightHandMiddleEnd
                          {
                            OFFSET -2.30252 -0.29437 -0.031706
                            CHANNELS 3 Zrotation Yrotation Xrotation
                          }
                        }
                      }
                    }
                  }
                  JOINT RightHandRing1
                  {
                    OFFSET -2.88569 -0.067952 -0.308858
                    CHANNELS 3 Zrotation Yrotation Xrotation
                    JOINT RightHandRing2
                    {
                      OFFSET -5.854198 -0.48613 -1.373731
                      CHANNELS 3 Zrotation Yrotation Xrotation
                      JOINT RightHandRing3
                      {
                        OFFSET -4.33881 -4e-06 -0.0
                        CHANNELS 3 Zrotation Yrotation Xrotation
                        JOINT RightHandRing4
                        {
                          OFFSET -2.654903 -4e-06 4e-06
                          CHANNELS 3 Zrotation Yrotation Xrotation
                          JOINT RightHandRingEnd
                          {
                            OFFSET -1.933568 0.077527 -5.2e-05
                            CHANNELS 3 Zrotation Yrotation Xrotation
                          }
                        }
                      }
                    }
                  }
                  JOINT RightHandPinky1
                  {
                    OFFSET -2.866425 -0.342796 -1.584145
                    CHANNELS 3 Zrotation Yrotation Xrotation
                    JOINT RightHandPinky2
                    {
                      OFFSET -5.091371 -1.332055 -1.772385
                      CHANNELS 3 Zrotation Yrotation Xrotation
                      JOINT RightHandPinky3
                      {
                        OFFSET -3.062664 -4e-06 1e-06
                        CHANNELS 3 Zrotation Yrotation Xrotation
                        JOINT RightHandPinky4
                        {
                          OFFSET -1.546529 4e-06 -2e-06
                          CHANNELS 3 Zrotation Yrotation Xrotation
                          JOINT RightHandPinkyEnd
                          {
                            OFFSET -1.945119 -0.157718 0.057211
                            CHANNELS 3 Zrotation Yrotation Xrotation
                          }
                        }
                      }
                    }
                  }
                }
              }
            }
          }
        }
      }
    }
    JOINT LeftLeg
    {
      OFFSET 10.043214 -8.434526 2.595655
      CHANNELS 3 Zrotation Yrotation Xrotation
      JOINT LeftShin
      {
        OFFSET -1e-06 -43.221752 -0.802913
        CHANNELS 3 Zrotation Yrotation Xrotation
        JOINT LeftFoot
        {
          OFFSET 1e-06 -42.155094 -3.481523
          CHANNELS 3 Zrotation Yrotation Xrotation
          JOINT LeftToeBase
          {
            OFFSET 0.0 -5.059472 13.231529
            CHANNELS 3 Zrotation Yrotation Xrotation
            JOINT LeftToeEnd
            {
              OFFSET -0.009607 -1.647619 6.513017
              CHANNELS 3 Zrotation Yrotation Xrotation
            }
          }
        }
      }
    }
    JOINT RightLeg
    {
      OFFSET -10.047278 -8.29526 2.620317
      CHANNELS 3 Zrotation Yrotation Xrotation
      JOINT RightShin
      {
        OFFSET 1e-06 -43.362206 -0.805556
        CHANNELS 3 Zrotation Yrotation Xrotation
        JOINT RightFoot
        {
          OFFSET 2e-06 -42.117393 -3.478398
          CHANNELS 3 Zrotation Yrotation Xrotation
          JOINT RightToeBase
          {
            OFFSET -0.0 -5.079609 13.284196
            CHANNELS 3 Zrotation Yrotation Xrotation
            JOINT RightToeEnd
            {
              OFFSET 0.009532 -1.634378 6.460591
              CHANNELS 3 Zrotation Yrotation Xrotation
            }
          }
        }
      }
    }
  }
}
MOTION
Frames: 5
Frame Time: 0.03333333333333333
0.0 0.0 0.0 0.0 -0.0 0.0 -3.256888 45.331738 46.829563 -2.090946 -1.049655 -8.674505 -0.039955 -0.079416 2.02257 -0.784207 -0.252647 -3.94629 -1.652645 -2.310627 11.422829 2.766631 1.356007 9.705067 -0.721006 -0.79144 -3.658195 0.687643 -1.127447 -13.280464 7.7e-05 -2.2e-05 6e-06 -0.029991 -0.149758 0.014104 0.65518 -3.847333 -10.5516 -0.72159 3.552838 -10.592501 -15.265038 -4.012158 16.910166 -53.286533 -1.659056 -4.373808 0.060691 -29.536949 -0.002101 17.503365 -7.180172 1.796156 -5.882109 9.861292 0.702593 -10.936878 -0.360574 7.156209 -0.0 8.77483 0.0 -15.927287 17.811579 5.949919 -1.844032 2.498504 -2.507278 -10.163608 4.678949 4.621111 -20.97604 -2e-06 3e-06 -21.226301 2.4517 -3.594 1e-06 -6e-06 0.0 -1.362681 2.240799 -0.746324 -21.334929 0.584913 3.008325 -13.821223 -2e-06 1e-06 -23.887188 -0.249078 -0.839484 -60.507473 2.580365 -1.143205 -0.294025 1.679689 0.833258 -14.218219 0.093216 1.300581 -34.212074 -0.287562 0.96717 -20.03323 0.964538 1.212841 0.0 1e-06 -1e-06 -3.440391 0.788234 0.501656 -15.928196 -3.167309 2.999707 -6.33883 -0.0 1e-06 -18.123459 3.648187 -4.905674 -4e-06 -0.0 -1e-06 14.108369 7.069039 16.039145 58.161472 6.589899 5.091134 0.649677 25.046799 0.265857 -4.218276 3.135565 2.540191 2.243544 -5.255041 -3.18016 14.282904 -0.826597 6.952505 -1e-06 -12.690616 0.0 16.858322 -17.546122 2.020137 1.665669 -1.955924 -2.8783 4.727803 -4.170592 4.993928 11.020536 2e-06 -1e-06 12.109062 -3.73572 -2.866785 -0.0 -0.0 -1e-06 1.291987 -1.92855 -1.498089 14.800139 0.567467 3.865608 14.242584 -1.341738 -6.66066 19.631985 0.143925 -0.648246 50.100288 -0.402491 -6.90791 0.353031 -1.511153 -0.03194 20.222811 3.684311 2.316631 18.787292 4e-06 -3e-06 10.751637 -0.47987 1.397905 0.0 1e-06 -2e-06 3.273809 0.305947 -0.580111 21.486832 11.830384 2.266132 8.162935 2e-06 -2e-06 18.399099 -3.798989 -4.940582 3e-06 -0.0 -2e-06 20.924479 -5.425628 -9.654975 -0.40542 -0.866735 135.23851 9.908408 -16.223644 -48.970673 2.409252 -1.155461 -43.32798 -0.0 -0.0 2e-06 -18.307091 -2.23675 -1.203585 0.449086 0.504066 129.189758 -2.896618 19.175119 -45.903652 -1.487133 0.581775 -39.754261 0.0 -0.0 -3e-06 
0.0 0.0 0.0 0.0 -0.0 0.0 -3.773634 45.965244 48.234089 -2.295209 -0.827862 -7.894701 -0.078408 -0.111247 1.534541 -0.788285 -0.179663 -4.123557 -1.613381 -2.283707 10.993557 3.077177 1.162337 8.872808 -0.658871 -0.656751 -3.674509 0.642024 -0.994618 -13.500177 7.7e-05 -2.3e-05 6e-06 -0.032477 -0.145275 0.018184 0.635168 -3.853347 -10.553446 -0.705968 3.566547 -10.593183 -15.806479 -3.930141 16.684631 -52.749012 -1.935843 -4.685606 0.127214 -28.901365 -0.05452 17.457247 -7.246789 2.472702 -5.882105 9.861288 0.702592 -10.936868 -0.360573 7.156205 -0.0 8.774827 -1e-06 -15.921325 17.80479 5.958352 -1.844031 2.498504 -2.507278 -10.163599 4.678946 4.621109 -20.976019 -1e-06 3e-06 -21.226284 2.4517 -3.594002 1e-06 -6e-06 -0.0 -1.362682 2.240798 -0.746323 -21.334911 0.584911 3.008323 -13.821213 -2e-06 2e-06 -23.887163 -0.249076 -0.839484 -60.526951 2.552581 -1.088424 -0.294026 1.679687 0.833255 -14.218207 0.093217 1.300582 -34.212048 -0.287559 0.967171 -20.033209 0.964539 1.212842 0.0 1e-06 0.0 -3.440388 0.788233 0.501656 -15.928183 -3.16731 2.999707 -6.338825 -1e-06 2e-06 -18.123444 3.648185 -4.905669 -4e-06 -0.0 -0.0 14.772704 6.944447 15.824889 58.46825 6.260664 4.811689 0.595693 24.553926 0.218871 -4.35244 3.368639 3.097342 2.243543 -5.255037 -3.180157 14.282894 -0.826597 6.952503 -2e-06 -12.690609 2e-06 16.832552 -17.528084 2.044158 1.665667 -1.955921 -2.878298 4.7278 -4.170591 4.993925 11.020528 2e-06 -2e-06 12.109055 -3.735717 -2.866785 -0.0 -0.0 -1e-06 1.291986 -1.928551 -1.498089 14.800132 0.567467 3.865609 14.242576 -1.341737 -6.660658 19.631971 0.143926 -0.648245 50.076054 -0.386537 -6.887428 0.353028 -1.51115 -0.031939 20.222797 3.684309 2.316629 18.787279 4e-06 -1e-06 10.751632 -0.479869 1.397904 0.0 1e-06 -2e-06 3.273809 0.305946 -0.580111 21.486818 11.830379 2.266131 8.162929 2e-06 -1e-06 18.399086 -3.798988 -4.940578 2e-06 0.0 -1e-06 21.104933 -5.930052 -8.839186 -0.437547 -0.950366 133.333984 9.461334 -16.488708 -48.96656 2.407327 -1.171285 -42.570137 -0.0 -0.0 3e-06 -17.691866 -3.578416 -0.141603 0.466561 0.611051 127.24118 -2.682069 18.696468 -45.545033 -1.477037 0.588132 -38.482204 0.0 -0.0 -2e-06 
0.0 0.0 0.0 0.0 -0.0 0.0 -4.245681 46.511669 49.518448 -2.411222 -0.695309 -7.104877 -0.122256 -0.140139 1.118479 -0.782339 -0.115823 -4.275886 -1.584464 -2.258007 10.590836 3.274543 1.036399 7.990198 -0.609642 -0.515426 -3.67424 0.542145 -0.858155 -13.638395 7.7e-05 -2.3e-05 6e-06 -0.034317 -0.145871 0.018461 0.615505 -3.863441 -10.558876 -0.689615 3.573795 -10.597416 -16.361755 -3.808695 16.484638 -52.372997 -2.167945 -4.934794 0.176046 -28.302618 -0.109389 17.28565 -7.305572 2.973859 -5.882112 9.861293 0.702593 -10.93688 -0.360573 7.156209 -0.0 8.774833 -0.0 -15.941228 17.80287 5.969121 -1.844033 2.498507 -2.507278 -10.163608 4.67895 4.621113 -20.97604 -1e-06 3e-06 -21.226303 2.451701 -3.594002 1e-06 -6e-06 1e-06 -1.362682 2.240799 -0.746323 -21.334929 0.584914 3.008325 -13.821223 -0.0 2e-06 -23.887184 -0.249075 -0.839484 -60.562618 2.528665 -1.032132 -0.294025 1.679689 0.833258 -14.218223 0.093217 1.300581 -34.212082 -0.287559 0.96717 -20.033234 0.964539 1.212844 -1e-06 1e-06 -1e-06 -3.440391 0.788235 0.501656 -15.928201 -3.16731 2.999709 -6.338831 -0.0 1e-06 -18.123463 3.648189 -4.905674 -4e-06 -0.0 -2e-06 15.375188 6.844794 15.590196 58.748779 5.849282 4.701985 0.537585 24.286169 0.187105 -4.484837 3.59592 3.447834 2.243543 -5.25504 -3.180159 14.2829 -0.826596 6.952506 -2e-06 -12.690614 -0.0 16.800209 -17.525377 2.067932 1.665668 -1.955924 -2.878302 4.727801 -4.170591 4.993926 11.020535 3e-06 -2e-06 12.10906 -3.735718 -2.866786 -0.0 0.0 -1e-06 1.291985 -1.92855 -1.49809 14.800138 0.567468 3.865608 14.242583 -1.341738 -6.660662 19.631979 0.143926 -0.648246 50.045177 -0.368782 -6.86415 0.35303 -1.511151 -0.031941 20.222805 3.684313 2.316631 18.787289 4e-06 -3e-06 10.751637 -0.479869 1.397906 0.0 0.0 -2e-06 3.273809 0.305947 -0.58011 21.486832 11.830384 2.266133 8.162932 2e-06 -2e-06 18.399099 -3.798988 -4.940581 2e-06 0.0 -2e-06 21.184275 -6.299979 -8.135009 -0.453097 -1.020027 131.598175 8.974073 -16.717056 -48.931419 2.403932 -1.189394 -41.771259 0.0 0.0 2e-06 -17.229269 -4.683768 0.689188 0.485016 0.705382 125.489334 -2.50522 18.322393 -45.217815 -1.472948 0.594647 -37.371456 0.0 -0.0 -3e-06 
0.0 0.0 0.0 0.0 -0.0 0.0 -4.666955 46.953377 50.644539 -2.460429 -0.611013 -6.253364 -0.159564 -0.164083 0.764945 -0.76808 -0.061614 -4.401649 -1.551328 -2.243182 10.206995 3.359124 0.979089 6.997904 -0.569005 -0.395958 -3.664566 0.376186 -0.716997 -13.709626 7.7e-05 -2.3e-05 6e-06 -0.035407 -0.14768 0.013621 0.600263 -3.872257 -10.56684 -0.676386 3.577491 -10.605808 -16.930067 -3.70457 16.278587 -52.116539 -2.412936 -5.042098 0.21337 -27.662138 -0.158899 17.061049 -7.301341 3.401266 -5.88211 9.86129 0.702591 -10.936879 -0.360576 7.156209 1e-06 8.77483 -1e-06 -15.946576 17.786144 5.981977 -1.844034 2.498507 -2.507279 -10.163609 4.678946 4.621109 -20.97604 -5e-06 2e-06 -21.226301 2.451697 -3.594001 2e-06 -6e-06 0.0 -1.362683 2.2408 -0.746324 -21.33493 0.584909 3.008323 -13.821223 -3e-06 1e-06 -23.887186 -0.249082 -0.839484 -60.567959 2.506744 -0.985944 -0.294026 1.679688 0.833256 -14.218219 0.093214 1.30058 -34.212074 -0.287566 0.967169 -20.033226 0.964536 1.212843 -0.0 1e-06 0.0 -3.440391 0.788233 0.501656 -15.928196 -3.167311 2.999709 -6.338831 -1e-06 -0.0 -18.123459 3.648183 -4.905674 -4e-06 -0.0 -2e-06 15.938537 6.761303 15.325724 58.926346 5.395234 4.690959 0.513432 24.264809 0.169887 -4.618921 3.845311 3.549936 2.243543 -5.255039 -3.180158 14.2829 -0.826595 6.952507 -3e-06 -12.690612 2e-06 16.762569 -17.523006 2.086247 1.665667 -1.955922 -2.878299 4.727803 -4.17059 4.993925 11.020535 3e-06 -0.0 12.109059 -3.735717 -2.866783 0.0 0.0 -1e-06 1.291987 -1.92855 -1.49809 14.800139 0.567468 3.865611 14.242579 -1.341737 -6.660659 19.631977 0.143926 -0.648244 50.002232 -0.349426 -6.844889 0.353029 -1.51115 -0.031939 20.222803 3.684312 2.316631 18.787287 5e-06 -1e-06 10.751636 -0.47987 1.397906 0.0 0.0 0.0 3.273808 0.305948 -0.580112 21.486828 11.830383 2.266132 8.162933 3e-06 -0.0 18.399096 -3.798988 -4.940578 2e-06 -0.0 -1e-06 21.189005 -6.570231 -7.675014 -0.453217 -1.071863 130.101288 8.487262 -16.906536 -48.862267 2.400753 -1.205806 -40.937126 0.0 0.0 3e-06 -16.863049 -5.608855 1.213154 0.506616 0.775892 123.991661 -2.37743 17.988895 -44.920456 -1.480073 0.603147 -36.281277 0.0 -0.0 -1e-06 
0.0 0.0 0.0 0.0 -0.0 0.0 -5.023302 47.298367 51.584198 -2.45409 -0.562884 -5.321554 -0.187103 -0.180641 0.464839 -0.747377 -0.01915 -4.492101 -1.508921 -2.226339 9.831886 3.35159 0.993893 5.900808 -0.551544 -0.307965 -3.657479 0.180655 -0.55643 -13.715038 7.7e-05 -2.2e-05 6e-06 -0.035884 -0.151187 0.006828 0.592861 -3.879481 -10.571955 -0.669954 3.576844 -10.610482 -17.500513 -3.647621 16.054115 -51.965111 -2.716607 -5.054853 0.209801 -26.938631 -0.189465 16.849251 -7.275449 3.82193 -5.882106 9.861283 0.702589 -10.93687 -0.360575 7.156204 1e-06 8.774822 -1e-06 -15.94597 17.746704 5.984309 -1.844032 2.498505 -2.507277 -10.1636 4.678944 4.621106 -20.976023 -4e-06 2e-06 -21.226286 2.451695 -3.594 2e-06 -6e-06 0.0 -1.362681 2.240798 -0.746323 -21.334911 0.58491 3.008323 -13.821211 -2e-06 1e-06 -23.887167 -0.249078 -0.839484 -60.535011 2.486007 -0.94401 -0.294024 1.679686 0.833256 -14.218207 0.093213 1.30058 -34.212048 -0.287564 0.96717 -20.033211 0.964536 1.212843 0.0 1e-06 0.0 -3.440387 0.788233 0.501656 -15.928185 -3.167308 2.999707 -6.338826 -2e-06 -1e-06 -18.123444 3.648183 -4.905671 -4e-06 -0.0 -2e-06 16.449955 6.714072 15.08077 58.991238 5.013041 4.778146 0.5067 24.378126 0.164448 -4.800414 4.084007 3.582297 2.243541 -5.255038 -3.180159 14.282896 -0.826594 6.952503 -2e-06 -12.690608 -0.0 16.73514 -17.523874 2.096369 1.665667 -1.955922 -2.878299 4.727799 -4.170588 4.993925 11.02053 3e-06 -3e-06 12.109056 -3.735716 -2.866785 -0.0 0.0 -1e-06 1.291986 -1.92855 -1.498089 14.800132 0.567469 3.865607 14.242577 -1.341735 -6.660659 19.631973 0.143927 -0.648246 49.955517 -0.338275 -6.821097 0.35303 -1.511151 -0.031941 20.222801 3.684311 2.316629 18.787281 5e-06 -2e-06 10.751633 -0.479868 1.397906 -1e-06 -0.0 0.0 3.273807 0.305948 -0.580112 21.486818 11.830378 2.266131 8.16293 2e-06 -0.0 18.399088 -3.798984 -4.940577 2e-06 -0.0 -1e-06 21.128635 -6.72691 -7.526126 -0.442546 -1.111781 128.887299 8.033689 -17.037477 -48.773468 2.399006 -1.217499 -40.17458 0.0 0.0 2e-06 -16.565535 -6.370301 1.370271 0.525604 0.815771 122.780464 -2.306816 17.671019 -44.632385 -1.494441 0.613297 -35.186691 0.0 -0.0 -2e-06 
